<?xml version="1.0" encoding="utf-8"?>
<!-- Generator: Adobe Illustrator 21.0.2, SVG Export Plug-In . SVG Version: 6.00 Build 0)  -->
<svg version="1.1"
	 id="svg2" inkscape:output_extension="org.inkscape.output.svg.inkscape" inkscape:version="0.48.0 r9654" sodipodi:docname="Pierre_ciseaux_feuille_l%E9zard_spock.svg" sodipodi:version="0.32" xmlns:cc="http://creativecommons.org/ns#" xmlns:dc="http://purl.org/dc/elements/1.1/" xmlns:inkscape="http://www.inkscape.org/namespaces/inkscape" xmlns:rdf="http://www.w3.org/1999/02/22-rdf-syntax-ns#" xmlns:sodipodi="http://sodipodi.sourceforge.net/DTD/sodipodi-0.dtd" xmlns:svg="http://www.w3.org/2000/svg"
	 xmlns="http://www.w3.org/2000/svg" xmlns:xlink="http://www.w3.org/1999/xlink" x="0px" y="0px" viewBox="0 0 352 343"
	 style="enable-background:new 0 0 352 343;" xml:space="preserve">
<style type="text/css">
	.st0{fill:#87DE87;stroke:#87DE87;stroke-width:1.417;}
	.st1{fill:#87DE87;stroke:#87DE87;stroke-width:1.1336;}
	.st2{fill:#80B3FF;stroke:#80B3FF;stroke-width:1.417;}
	.st3{fill:#80B3FF;stroke:#80B3FF;stroke-width:1.1336;}
	.st4{fill:#E580FF;stroke:#E580FF;stroke-width:1.417;}
	.st5{fill:#E580FF;stroke:#E580FF;stroke-width:1.1336;}
	.st6{fill:#FF8080;stroke:#FF8080;stroke-width:1.417;}
	.st7{fill:#FF8080;stroke:#FF8080;stroke-width:1.1336;}
	.st8{fill:#FFDD55;stroke:#FFDD55;stroke-width:1.417;}
	.st9{fill:#FFDD55;stroke:#FFDD55;stroke-width:1.1336;}
</style>
<defs>
	
	
		<inkscape:perspective  id="perspective9" inkscape:persp3d-origin="372.04724 : 350.78739 : 1" inkscape:vp_x="0 : 526.18109 : 1" inkscape:vp_y="0 : 1000 : 0" inkscape:vp_z="744.09448 : 526.18109 : 1" sodipodi:type="inkscape:persp3d">
		</inkscape:perspective>
	
		<inkscape:perspective  id="perspective2413" inkscape:persp3d-origin="372.04724 : 350.78739 : 1" inkscape:vp_x="0 : 526.18109 : 1" inkscape:vp_y="0 : 1000 : 0" inkscape:vp_z="744.09448 : 526.18109 : 1" sodipodi:type="inkscape:persp3d">
		</inkscape:perspective>
	
		<inkscape:perspective  id="perspective2426" inkscape:persp3d-origin="372.04724 : 350.78739 : 1" inkscape:vp_x="0 : 526.18109 : 1" inkscape:vp_y="0 : 1000 : 0" inkscape:vp_z="744.09448 : 526.18109 : 1" sodipodi:type="inkscape:persp3d">
		</inkscape:perspective>
	
		<inkscape:perspective  id="perspective3367" inkscape:persp3d-origin="372.04724 : 350.78739 : 1" inkscape:vp_x="0 : 526.18109 : 1" inkscape:vp_y="0 : 1000 : 0" inkscape:vp_z="744.09448 : 526.18109 : 1" sodipodi:type="inkscape:persp3d">
		</inkscape:perspective>
	
		<inkscape:perspective  id="perspective3397" inkscape:persp3d-origin="372.04724 : 350.78739 : 1" inkscape:vp_x="0 : 526.18109 : 1" inkscape:vp_y="0 : 1000 : 0" inkscape:vp_z="744.09448 : 526.18109 : 1" sodipodi:type="inkscape:persp3d">
		</inkscape:perspective>
</defs>
<sodipodi:namedview  bordercolor="#666666" borderopacity="1.0" gridtolerance="10.0" guidetolerance="10.0" id="base" inkscape:current-layer="svg2" inkscape:cx="-344" inkscape:cy="300" inkscape:guide-bbox="true" inkscape:pageopacity="0.0" inkscape:pageshadow="2" inkscape:window-height="1080" inkscape:window-maximized="0" inkscape:window-width="1918" inkscape:window-x="1" inkscape:window-y="57" inkscape:zoom="0.5" objecttolerance="10.0" pagecolor="#ffffff" showgrid="false" showguides="true">
	</sodipodi:namedview>
<g id="g12143">
	<path id="path3502" inkscape:connector-curvature="0" class="st0" d="M9.1,182.8l21.6,66.9l1.3-0.4l-21.6-66.9L9.1,182.8z"/>
	<path id="path12149" inkscape:connector-curvature="0" class="st1" d="M14.1,196.1l7.1,3.7L9.8,182.6l0.7,20.6L14.1,196.1
		L14.1,196.1z"/>
</g>
<g id="g12151">
	<path id="path3504" inkscape:connector-curvature="0" class="st2" d="M52.9,51.6l0.9,1.1l45.8-35.5l-0.9-1.1L52.9,51.6z"/>
	<path id="path12157" inkscape:connector-curvature="0" class="st3" d="M88,25.3l-1,8l12.2-16.6L80,24.3L88,25.3L88,25.3z"/>
</g>
<g id="g12159">
	<path id="path3506" inkscape:connector-curvature="0" class="st4" d="M236.7,15.2l54.3,34.8l0.8-1.2L237.4,14L236.7,15.2z"/>
	<path id="path12165" inkscape:connector-curvature="0" class="st5" d="M279.4,41.7l-7.8,1.7l19.8,5.9l-13.6-15.5L279.4,41.7
		L279.4,41.7z"/>
</g>
<g id="g12167">
	<path id="path3508" inkscape:connector-curvature="0" class="st6" d="M144.6,328.2l0,1.4l63.1-1.3l0-1.4L144.6,328.2z"/>
	<path id="path12173" inkscape:connector-curvature="0" class="st7" d="M158.8,328.6l5.5-5.8l-19.7,6.1l20,5.3L158.8,328.6z"/>
</g>
<g id="g12175">
	<path id="path3510" inkscape:connector-curvature="0" class="st8" d="M317.9,243l1.4,0.4l19.3-63.5l-1.4-0.4L317.9,243z"/>
	<path id="path12181" inkscape:connector-curvature="0" class="st9" d="M322.7,229.7l-3.8-7.1l-0.4,20.6l11.2-17.3L322.7,229.7z"/>
</g>
<g id="g12183">
	<path id="path3512" inkscape:connector-curvature="0" class="st4" d="M82.6,247.9l1.4,0.4l61.6-201.6l-1.3-0.4L82.6,247.9z"/>
	<path id="path12189" inkscape:connector-curvature="0" class="st5" d="M87.4,234.6l-3.8-7.1l-0.4,20.6l11.2-17.3L87.4,234.6
		L87.4,234.6z"/>
</g>
<g id="g12191">
	<path id="path3514" inkscape:connector-curvature="0" class="st0" d="M126.5,279.1l0.9,1.1l166.3-132.1l-0.9-1.1L126.5,279.1z"/>
	<path id="path12197" inkscape:connector-curvature="0" class="st1" d="M282.2,156.4l-0.9,8l12-16.8l-19.1,7.9L282.2,156.4
		L282.2,156.4z"/>
</g>
<g id="g12199">
	<path id="path3516" inkscape:connector-curvature="0" class="st2" d="M52.3,152.4l172,121.6l0.8-1.2l-172-121.6L52.3,152.4z"/>
	<path id="path12205" inkscape:connector-curvature="0" class="st3" d="M213.1,265.2l-7.9,1.4l19.5,6.8l-12.9-16.1L213.1,265.2
		L213.1,265.2z"/>
</g>
<g id="g12207">
	<path id="path3518" inkscape:connector-curvature="0" class="st8" d="M70.3,99.6l0,1.4l205.4-2.7l0-1.4L70.3,99.6z"/>
	<path id="path12213" inkscape:connector-curvature="0" class="st9" d="M84.5,100.1l5.6-5.7l-19.8,5.9l19.9,5.4L84.5,100.1z"/>
</g>
<g id="g12215">
	<path id="path3520" inkscape:connector-curvature="0" class="st6" d="M194.9,44.7l70.6,200.8l1.3-0.5L196.2,44.3L194.9,44.7z"/>
	<path id="path12221" inkscape:connector-curvature="0" class="st7" d="M200.2,57.9l7.2,3.5l-11.9-16.8l1.2,20.6L200.2,57.9
		L200.2,57.9z"/>
</g>
</svg>
